# Blender v2.78 (sub 0) OBJ File: '20.blend'
# www.blender.org
mtllib Persimmon_01.mtl
o Persimmon_Circle.003
v -0.000000 0.011734 -3.433815
v -2.428074 0.011734 -2.428074
v -3.433815 0.011734 0.000000
v -2.428074 0.011734 2.428074
v 0.000000 0.011734 3.433815
v 2.428074 0.011734 2.428073
v 3.433815 0.011734 -0.000000
v 2.428074 0.011734 -2.428073
v -0.000000 0.508184 -5.732975
v -4.053826 0.508184 -4.053825
v -5.732975 0.508184 0.000000
v -4.053826 0.508184 4.053825
v 0.000000 0.508184 5.732975
v 4.053826 0.508184 4.053825
v 5.732975 0.508184 -0.000000
v 4.053826 0.508184 -4.053825
v -0.000000 2.180660 -6.337165
v -4.481053 2.180660 -4.481052
v -6.337165 2.180660 0.000000
v -4.481053 2.180660 4.481052
v 0.000000 2.180660 6.337165
v 4.481053 2.180660 4.481051
v 6.337165 2.180660 -0.000000
v 4.481053 2.180660 -4.481052
v -0.000000 3.989995 -6.261487
v -4.427540 3.989995 -4.427540
v -6.261487 3.989995 0.000000
v -4.427540 3.989995 4.427540
v 0.000000 3.989995 6.261487
v 4.427541 3.989995 4.427539
v 6.261487 3.989995 -0.000000
v 4.427541 3.989995 -4.427540
v -0.000000 6.254658 -4.224554
v -2.987211 6.254658 -2.987211
v -4.224554 6.254658 0.000000
v -2.987211 6.254658 2.987211
v 0.000000 6.254658 4.224554
v 2.987211 6.254658 2.987210
v 4.224554 6.254658 -0.000000
v 2.987211 6.254658 -2.987210
v 0.000000 6.056097 -1.715785
v -1.213243 6.056097 -1.213243
v -1.715785 6.056097 0.000000
v -1.213243 6.056097 1.213243
v 0.000000 6.056097 1.715785
v 1.213243 6.056097 1.213243
v 1.715785 6.056097 -0.000000
v 1.213243 6.056097 -1.213243
v 0.000000 5.946889 -1.715785
v -1.213243 5.946889 -1.213243
v -1.715785 5.946889 0.000000
v -1.213243 5.946889 1.213243
v 0.000000 5.946889 1.715785
v 1.213243 5.946889 1.213243
v 1.715785 5.946889 -0.000000
v 1.213243 5.946889 -1.213243
v -0.018879 6.214672 -4.773841
v -4.090333 6.387802 -1.674879
v -4.977749 6.188395 0.070966
v -1.729328 6.336399 4.149257
v 0.168534 6.162328 4.944334
v 4.272304 6.468116 1.429147
v 4.834443 6.287789 -0.045021
v 1.617007 6.427849 -3.831250
v -1.633820 6.456855 -3.802575
v 4.228234 6.442007 -1.504617
v -3.969620 6.508806 1.731164
v 1.884016 6.560216 3.865847
v 0.000000 5.946889 -1.002088
v -0.708583 5.946889 -0.708583
v -1.002088 5.946889 0.000000
v -0.708583 5.946889 0.708583
v 0.000000 5.946889 1.002088
v 0.708584 5.946889 0.708583
v 1.002088 5.946889 -0.000000
v 0.708584 5.946889 -0.708583
v 0.000000 5.946889 0.000000
v 1.715785 6.175053 -0.000000
v 1.213243 6.175053 1.213243
v 0.000000 6.175053 1.715785
v -1.213243 6.175053 1.213243
v -1.715785 6.175053 0.000000
v 0.000000 6.175053 -1.715785
v -1.213243 6.175053 -1.213243
v 1.213243 6.175053 -1.213243
v -1.632305 6.678814 -3.855401
v -0.017365 6.436631 -4.826668
v -5.038311 6.408300 0.065300
v -4.150895 6.607708 -1.680545
v -4.030181 6.728713 1.725498
v 0.160319 6.380184 5.011640
v -1.737543 6.554255 4.216563
v 1.875801 6.778072 3.933153
v 4.873220 6.423290 -0.046810
v 4.311080 6.603617 1.427359
v 4.267011 6.577508 -1.506405
v 1.618521 6.649808 -3.884077
v -0.708583 6.251107 -0.708583
v 0.000000 6.251107 -1.002088
v -1.002088 6.251107 0.000000
v -0.708583 6.251107 0.708583
v 0.000000 6.251107 1.002088
v 0.708584 6.251107 0.708583
v 1.002088 6.251107 -0.000000
v 0.708584 6.251107 -0.708583
v -0.318889 6.479272 -0.318889
v -0.538807 6.479271 -0.538807
v 0.000000 6.479271 -0.761988
v -0.761988 6.479271 0.000000
v -0.538807 6.479271 0.538807
v 0.000000 6.479271 0.761988
v 0.538807 6.479271 0.538807
v 0.761988 6.479271 -0.000000
v 0.538807 6.479271 -0.538807
v -0.227609 6.384203 -0.227609
v 0.000000 6.479272 -0.450977
v -0.450977 6.479272 0.000000
v -0.318889 6.479272 0.318889
v 0.000000 6.479272 0.450977
v 0.318889 6.479272 0.318889
v 0.450978 6.479272 -0.000000
v 0.318889 6.479272 -0.318889
v 0.000000 6.384203 -0.321887
v -0.321887 6.384203 0.000000
v -0.227609 6.384203 0.227609
v 0.000000 6.384203 0.321887
v 0.227609 6.384203 0.227609
v 0.321887 6.384203 0.000000
v 0.227609 6.384203 -0.227609
v -0.108401 6.764475 -0.108401
v 0.000000 6.764475 -0.153302
v -0.153302 6.764475 0.000000
v -0.108401 6.764475 0.108401
v 0.000000 6.764475 0.153302
v 0.108401 6.764475 0.108401
v 0.153303 6.764475 0.000000
v 0.108401 6.764475 -0.108401
v 0.000000 6.764475 0.000000
v 1.612843 6.324353 -2.494635
v -0.006519 6.143566 -3.300665
v -1.607926 6.353090 -2.466225
v 1.614561 6.576198 -2.554575
v -0.004800 6.395411 -3.360605
v -1.606208 6.604935 -2.526165
v -2.745475 6.245189 -2.027973
v -3.478409 6.096138 0.021106
v -2.602808 6.388200 1.997505
v -2.813504 6.492212 -2.034338
v -3.546438 6.343162 0.014741
v -2.670837 6.635223 1.991140
v -1.806050 6.248788 2.824843
v 0.047995 6.143325 3.392504
v 1.764262 6.469941 2.544808
v -1.814265 6.466643 2.892150
v 0.039779 6.361180 3.459811
v 1.756047 6.687796 2.612115
v 2.759971 6.369622 1.779735
v 3.447384 6.149110 -0.022951
v 2.706081 6.337695 -1.807817
v 2.822741 6.588963 1.776840
v 3.510153 6.368451 -0.025846
v 2.768850 6.557035 -1.810712
v 5.621491 5.511809 -0.000000
v 3.974995 5.511809 -3.974994
v 0.000000 5.511809 5.621491
v 3.974995 5.511809 3.974994
v -5.621491 5.511809 0.000000
v -3.974995 5.511809 3.974995
v -0.000000 5.511809 -5.621491
v -3.974995 5.511809 -3.974995
v 0.000000 0.000000 0.000000
vn -0.2103 -0.9738 0.0871
vn -0.0871 -0.9738 -0.2103
vn 0.0871 -0.9738 -0.2103
vn 0.2103 -0.9738 0.0871
vn -0.0871 -0.9738 0.2103
vn -0.2103 -0.9738 -0.0871
vn 0.2103 -0.9738 -0.0871
vn 0.0871 -0.9738 0.2103
vn 0.8764 -0.3166 0.3630
vn -0.3630 -0.3166 0.8764
vn -0.8764 -0.3166 -0.3630
vn 0.8764 -0.3166 -0.3630
vn 0.3630 -0.3166 0.8764
vn -0.8764 -0.3166 0.3630
vn -0.3630 -0.3166 -0.8764
vn 0.3630 -0.3166 -0.8764
vn -0.3824 0.0386 -0.9232
vn 0.3824 0.0386 -0.9232
vn 0.9232 0.0386 0.3824
vn -0.3824 0.0386 0.9232
vn -0.9232 0.0386 -0.3824
vn 0.9232 0.0386 -0.3824
vn 0.3824 0.0386 0.9232
vn -0.9232 0.0386 0.3824
vn 0.4609 0.8667 -0.1909
vn 0.1909 0.8667 0.4609
vn -0.4609 0.8667 0.1909
vn -0.1909 0.8667 -0.4609
vn 0.1909 0.8667 -0.4609
vn 0.4609 0.8667 0.1909
vn -0.1909 0.8667 0.4609
vn -0.4609 0.8667 -0.1909
vn 0.0789 0.9964 0.0327
vn -0.0789 0.9964 0.0327
vn -0.0327 0.9964 -0.0789
vn 0.0789 0.9964 -0.0327
vn 0.0327 0.9964 0.0789
vn -0.0327 0.9964 0.0789
vn -0.0789 0.9964 -0.0327
vn 0.0327 0.9964 -0.0789
vn -0.8612 0.3622 -0.3567
vn -0.3567 0.3622 0.8612
vn 0.8612 0.3622 0.3567
vn 0.3567 0.3622 -0.8612
vn -0.3567 0.3622 -0.8612
vn -0.8612 0.3622 0.3567
vn 0.3567 0.3622 0.8612
vn 0.8612 0.3622 -0.3567
vn -0.0034 -1.0000 0.0014
vn -0.0014 -1.0000 -0.0034
vn 0.0014 -1.0000 -0.0034
vn 0.0034 -1.0000 0.0014
vn -0.0014 -1.0000 0.0034
vn -0.0034 -1.0000 -0.0014
vn 0.0034 -1.0000 -0.0014
vn 0.0014 -1.0000 0.0034
vn 0.1525 -0.9864 -0.0617
vn 0.1007 -0.9822 0.1586
vn -0.0898 -0.9950 0.0430
vn -0.1003 -0.9860 -0.1334
vn 0.0962 -0.9849 -0.1440
vn 0.2167 -0.9760 0.0190
vn -0.0882 -0.9738 0.2097
vn -0.1712 -0.9835 -0.0589
vn 0.0000 -1.0000 -0.0000
vn -0.1418 0.9890 0.0411
vn -0.0419 0.9897 -0.1370
vn 0.0898 0.9950 -0.0430
vn 0.0811 0.9888 0.1254
vn -0.0381 0.9920 0.1206
vn -0.2167 0.9760 -0.0190
vn 0.0695 0.9772 -0.2006
vn 0.1601 0.9864 0.0384
vn -0.1059 0.9934 0.0438
vn -0.0438 0.9934 -0.1059
vn 0.0438 0.9934 -0.1059
vn 0.1059 0.9934 0.0438
vn -0.0438 0.9934 0.1059
vn -0.1059 0.9934 -0.0438
vn 0.1059 0.9934 -0.0438
vn 0.0438 0.9934 0.1059
vn -0.6624 0.6971 -0.2744
vn -0.2744 0.6971 0.6624
vn 0.6624 0.6971 0.2744
vn 0.2744 0.6971 -0.6624
vn -0.2744 0.6971 -0.6624
vn -0.6624 0.6971 0.2744
vn 0.2744 0.6971 0.6624
vn 0.6624 0.6971 -0.2744
vn 0.2288 -0.0526 0.9721
vn -0.3925 -0.2850 0.8745
vn 0.4994 0.0831 0.8624
vn 0.5555 -0.2263 0.8001
vn 0.9152 0.0766 -0.3957
vn -0.9965 -0.0566 0.0615
vn 0.8939 -0.2509 0.3715
vn 0.8824 -0.2577 -0.3937
vn -0.2624 -0.0970 -0.9601
vn 0.5086 -0.2026 -0.8368
vn -0.5268 -0.1934 -0.8277
vn 1.0000 -0.0062 0.0026
vn -0.8523 -0.2466 -0.4614
vn -0.9513 0.0416 0.3056
vn -0.8169 -0.2111 0.5368
vn -0.3740 0.0465 -0.9263
vn 0.0000 1.0000 0.0000
vn 0.2385 0.7820 0.5759
vn 0.5759 0.7820 -0.2385
vn -0.2385 0.7820 -0.5759
vn -0.5759 0.7820 0.2385
vn 0.5759 0.7820 0.2385
vn 0.2385 0.7820 -0.5759
vn -0.5759 0.7820 -0.2385
vn -0.2385 0.7820 0.5759
vn 0.8549 0.3790 -0.3541
vn -0.8549 0.3790 -0.3541
vn -0.3541 0.3790 0.8549
vn 0.8549 0.3790 0.3541
vn 0.3541 0.3790 -0.8549
vn -0.3541 0.3790 -0.8549
vn -0.8549 0.3790 0.3541
vn 0.3541 0.3790 0.8549
vn -0.9997 0.0116 0.0203
vn 0.9530 0.0342 0.3012
vn 0.1628 0.9680 0.1909
vn -0.1465 0.9722 0.1829
vn -0.1594 -0.9700 -0.1835
vn 0.1432 -0.9740 -0.1755
vn 0.4707 0.0556 -0.8805
vn -0.1936 -0.0280 0.9807
vn 0.1495 0.9767 -0.1540
vn 0.1187 0.9888 0.0901
vn -0.1444 -0.9778 0.1519
vn -0.1132 -0.9897 -0.0881
vn -0.9374 0.0350 -0.3464
vn 0.9933 0.0667 -0.0946
vn -0.1903 0.9652 -0.1794
vn 0.0777 0.9891 -0.1253
vn 0.1954 -0.9619 0.1912
vn -0.0814 -0.9873 0.1361
vn 0.1995 -0.0700 -0.9774
vn -0.3495 0.0551 0.9353
vn -0.1459 0.9817 0.1223
vn -0.1538 0.9792 -0.1323
vn 0.1560 -0.9796 -0.1263
vn 0.1637 -0.9771 0.1360
usemtl FF5722
s off
f 4//1 12//1 11//1 3//1
f 2//2 10//2 9//2 1//2
f 1//3 9//3 16//3 8//3
f 7//4 15//4 14//4 6//4
f 5//5 13//5 12//5 4//5
f 3//6 11//6 10//6 2//6
f 8//7 16//7 15//7 7//7
f 6//8 14//8 13//8 5//8
f 15//9 23//9 22//9 14//9
f 13//10 21//10 20//10 12//10
f 11//11 19//11 18//11 10//11
f 16//12 24//12 23//12 15//12
f 14//13 22//13 21//13 13//13
f 12//14 20//14 19//14 11//14
f 10//15 18//15 17//15 9//15
f 9//16 17//16 24//16 16//16
f 18//17 26//17 25//17 17//17
f 17//18 25//18 32//18 24//18
f 23//19 31//19 30//19 22//19
f 21//20 29//20 28//20 20//20
f 19//21 27//21 26//21 18//21
f 24//22 32//22 31//22 23//22
f 22//23 30//23 29//23 21//23
f 20//24 28//24 27//24 19//24
f 164//25 40//25 39//25 163//25
f 166//26 38//26 37//26 165//26
f 168//27 36//27 35//27 167//27
f 170//28 34//28 33//28 169//28
f 169//29 33//29 40//29 164//29
f 163//30 39//30 38//30 166//30
f 165//31 37//31 36//31 168//31
f 167//32 35//32 34//32 170//32
f 35//33 43//33 42//33 34//33
f 40//34 48//34 47//34 39//34
f 38//35 46//35 45//35 37//35
f 36//36 44//36 43//36 35//36
f 34//37 42//37 41//37 33//37
f 33//38 41//38 48//38 40//38
f 39//39 47//39 46//39 38//39
f 37//40 45//40 44//40 36//40
f 27//41 167//41 170//41 26//41
f 29//42 165//42 168//42 28//42
f 31//43 163//43 166//43 30//43
f 25//44 169//44 164//44 32//44
f 26//45 170//45 169//45 25//45
f 28//46 168//46 167//46 27//46
f 30//47 166//47 165//47 29//47
f 32//48 164//48 163//48 31//48
f 4//49 3//49 171//49
f 2//50 1//50 171//50
f 1//51 8//51 171//51
f 7//52 6//52 171//52
f 5//53 4//53 171//53
f 3//54 2//54 171//54
f 8//55 7//55 171//55
f 6//56 5//56 171//56
usemtl 8BC34A
f 140//57 57//57 64//57 139//57
f 158//58 63//58 62//58 157//58
f 152//59 61//59 60//59 151//59
f 146//60 59//60 58//60 145//60
f 159//61 66//61 63//61 158//61
f 153//62 68//62 61//62 152//62
f 147//63 67//63 59//63 146//63
f 141//64 65//64 57//64 140//64
f 51//65 71//65 72//65 52//65
f 49//65 69//65 70//65 50//65
f 56//65 76//65 69//65 49//65
f 54//65 74//65 75//65 55//65
f 52//65 72//65 73//65 53//65
f 50//65 70//65 71//65 51//65
f 55//65 75//65 76//65 56//65
f 53//65 73//65 74//65 54//65
f 76//65 77//65 69//65
f 74//65 77//65 75//65
f 72//65 77//65 73//65
f 70//65 77//65 71//65
f 75//65 77//65 76//65
f 73//65 77//65 74//65
f 71//65 77//65 72//65
f 69//65 77//65 70//65
f 143//66 142//66 97//66 87//66
f 161//67 160//67 95//67 94//67
f 155//68 154//68 92//68 91//68
f 149//69 148//69 89//69 88//69
f 162//70 161//70 94//70 96//70
f 156//71 155//71 91//71 93//71
f 150//72 149//72 88//72 90//72
f 144//73 143//73 87//73 86//73
f 82//74 81//74 101//74 100//74
f 83//75 84//75 98//75 99//75
f 85//76 83//76 99//76 105//76
f 79//77 78//77 104//77 103//77
f 81//78 80//78 102//78 101//78
f 84//79 82//79 100//79 98//79
f 78//80 85//80 105//80 104//80
f 80//81 79//81 103//81 102//81
f 98//82 100//82 109//82 107//82
f 101//83 102//83 111//83 110//83
f 103//84 104//84 113//84 112//84
f 105//85 99//85 108//85 114//85
f 99//86 98//86 107//86 108//86
f 100//87 101//87 110//87 109//87
f 102//88 103//88 112//88 111//88
f 104//89 105//89 114//89 113//89
f 157//90 62//90 95//90 160//90
f 60//91 61//91 91//91 92//91
f 147//92 52//92 81//92 150//92
f 61//93 68//93 93//93 91//93
f 153//94 54//94 79//94 156//94
f 151//95 60//95 92//95 154//95
f 62//96 63//96 94//96 95//96
f 63//97 66//97 96//97 94//97
f 145//98 58//98 89//98 148//98
f 64//99 57//99 87//99 97//99
f 57//100 65//100 86//100 87//100
f 139//101 64//101 97//101 142//101
f 58//102 59//102 88//102 89//102
f 141//103 50//103 84//103 144//103
f 59//104 67//104 90//104 88//104
f 159//105 56//105 85//105 162//105
f 112//106 113//106 121//106 120//106
f 114//106 108//106 116//106 122//106
f 108//106 107//106 106//106 116//106
f 109//106 110//106 118//106 117//106
f 111//106 112//106 120//106 119//106
f 113//106 114//106 122//106 121//106
f 107//106 109//106 117//106 106//106
f 110//106 111//106 119//106 118//106
f 116//107 106//107 115//107 123//107
f 117//108 118//108 125//108 124//108
f 119//109 120//109 127//109 126//109
f 121//110 122//110 129//110 128//110
f 106//111 117//111 124//111 115//111
f 118//112 119//112 126//112 125//112
f 120//113 121//113 128//113 127//113
f 122//114 116//114 123//114 129//114
f 128//115 129//115 137//115 136//115
f 115//116 124//116 132//116 130//116
f 125//117 126//117 134//117 133//117
f 127//118 128//118 136//118 135//118
f 129//119 123//119 131//119 137//119
f 123//120 115//120 130//120 131//120
f 124//121 125//121 133//121 132//121
f 126//122 127//122 135//122 134//122
f 137//106 131//106 138//106
f 135//106 136//106 138//106
f 133//106 134//106 138//106
f 130//106 132//106 138//106
f 136//106 137//106 138//106
f 134//106 135//106 138//106
f 132//106 133//106 138//106
f 131//106 130//106 138//106
f 65//123 141//123 144//123 86//123
f 56//124 139//124 142//124 85//124
f 84//125 83//125 143//125 144//125
f 83//126 85//126 142//126 143//126
f 50//127 141//127 140//127 49//127
f 49//128 140//128 139//128 56//128
f 50//129 145//129 148//129 84//129
f 67//130 147//130 150//130 90//130
f 81//131 82//131 149//131 150//131
f 82//132 84//132 148//132 149//132
f 52//133 147//133 146//133 51//133
f 51//134 146//134 145//134 50//134
f 52//135 151//135 154//135 81//135
f 68//136 153//136 156//136 93//136
f 79//137 80//137 155//137 156//137
f 80//138 81//138 154//138 155//138
f 54//139 153//139 152//139 53//139
f 53//140 152//140 151//140 52//140
f 66//141 159//141 162//141 96//141
f 54//142 157//142 160//142 79//142
f 85//143 78//143 161//143 162//143
f 78//144 79//144 160//144 161//144
f 56//145 159//145 158//145 55//145
f 55//146 158//146 157//146 54//146
